<?xml version="1.0" encoding="UTF-8"?>
<svg id="Warstwa_1" data-name="Warstwa 1" xmlns="http://www.w3.org/2000/svg" viewBox="0 0 20.08 12.99">
  <defs>
    <style>
      .cls-1 {
        fill: #b39c6b;
      }

      .cls-2 {
        fill: #522e2c;
      }
    </style>
  </defs>
  <path class="cls-1" d="m10.04.02c0,1.46-.01,2.49-.06,3.19.04.56.06,1.16.06,1.81,0-.64.02-1.24.07-1.79-.05-.7-.07-1.73-.07-3.21Z"/>
  <path class="cls-2" d="m10.04.02c0,1.46-.01,2.49-.06,3.19.04.56.06,1.16.06,1.81,0-.64.02-1.24.07-1.79-.05-.7-.07-1.73-.07-3.21Z"/>
  <path class="cls-1" d="m10.57,4.43c-.2.63-.35,1.32-.44,2.09-.01-.09-.02-.19-.02-.29.05-.71.14-1.32.24-1.9-.1-.13-.17-.39-.22-.81-.06.47-.09.97-.09,1.5,0-.54-.03-1.04-.09-1.52-.04.42-.11.68-.21.82.1.57.19,1.19.24,1.89-.01.1-.02.2-.03.29-.08-.76-.24-1.44-.43-2.07-.88-.05-3.24-4.23-9.52-4.43,9.56.39,10.04,12.99,10.04,12.99,0,0,.48-12.6,10.04-12.99-6.26.2-8.63,4.35-9.51,4.43Z"/>
  <path class="cls-2" d="m10.04,10.62c-.45-2.45-1.57-6.26-4.29-8.67,1.1.66,1.9,1.39,2.48,1.92.45.41.77.7,1.05.81.17.6.3,1.22.37,1.85h.18s0,.01,0,.02h.6c.07-.65.2-1.27.38-1.88.28-.11.59-.4,1.04-.81.58-.53,1.38-1.26,2.48-1.92-2.72,2.41-3.83,6.22-4.29,8.67Z"/>
</svg>